<?xml version="1.0" standalone="no"?>
<!DOCTYPE svg PUBLIC "-//W3C//DTD SVG 20010904//EN"
 "http://www.w3.org/TR/2001/REC-SVG-20010904/DTD/svg10.dtd">
<svg version="1.0" xmlns="http://www.w3.org/2000/svg"
 width="61.000000pt" height="54.000000pt" viewBox="0 0 61.000000 54.000000"
 preserveAspectRatio="xMidYMid meet">

<g transform="translate(0.000000,54.000000) scale(0.100000,-0.100000)"
fill="#000000" stroke="none">
<path d="M416 351 c8 -36 -6 -44 -42 -27 -49 24 -91 29 -97 12 -4 -10 2 -18
16 -22 22 -7 22 -8 -3 -14 -23 -5 -25 -11 -28 -63 -2 -46 0 -57 13 -57 8 0 15
-5 15 -11 0 -6 -7 -9 -15 -5 -17 6 -19 -2 -6 -23 11 -18 31 -5 31 20 0 15 6
20 23 17 19 -3 23 -11 27 -53 5 -48 6 -50 35 -50 29 0 29 1 27 45 -3 40 1 49
32 79 20 19 36 39 36 45 0 5 9 19 20 31 12 12 23 38 27 58 l5 36 -31 -12 c-27
-10 -37 -9 -61 5 l-29 17 5 -28z m-122 -117 c3 -8 2 -12 -4 -9 -6 3 -10 10
-10 16 0 14 7 11 14 -7z"/>
<path d="M7 353 c-14 -13 -6 -51 14 -69 16 -14 35 -19 76 -18 29 1 52 -1 49
-3 -3 -3 2 -22 10 -41 8 -20 12 -48 9 -62 -8 -35 9 -76 36 -90 34 -19 48 4 20
34 -18 20 -21 28 -12 44 6 12 11 27 11 34 -1 7 -7 -1 -14 -18 -16 -37 -37 -54
-29 -24 3 11 9 20 14 20 5 0 9 11 9 24 0 27 16 43 23 24 2 -7 5 9 5 35 1 31
-2 45 -9 41 -6 -3 -9 -15 -6 -25 7 -28 -8 -32 -29 -8 -11 12 -28 25 -39 30
-17 7 -16 8 10 9 32 1 73 25 62 36 -3 4 -29 -3 -56 -15 -82 -35 -141 -22 -128
29 5 19 -12 28 -26 13z m32 -60 c9 -7 11 -13 5 -13 -17 0 -34 23 -33 45 1 19
1 19 6 0 3 -11 13 -25 22 -32z m64 -20 c-7 -2 -21 -2 -30 0 -10 3 -4 5 12 5
17 0 24 -2 18 -5z m121 -202 c-2 -3 -12 3 -22 13 -16 17 -16 18 5 5 12 -7 20
-15 17 -18z"/>
<path d="M220 130 c0 -11 4 -20 9 -20 5 0 7 9 4 20 -3 11 -7 20 -9 20 -2 0 -4
-9 -4 -20z"/>
</g>
</svg>
